<?xml version="1.0" encoding="UTF-8"?>
<svg version="1.1" xmlns="http://www.w3.org/2000/svg" width="80" height="80">
<path d="M0 0 C0 4.62 0 9.24 0 14 C1.7840625 13.95359375 3.568125 13.9071875 5.40625 13.859375 C7.77081652 13.8218422 10.13540124 13.78544366 12.5 13.75 C13.67304687 13.71648438 14.84609375 13.68296875 16.0546875 13.6484375 C24.17677141 13.55717813 29.79937178 14.37513356 36.0234375 19.74609375 C36.69246094 20.58333984 36.69246094 20.58333984 37.375 21.4375 C37.83648437 21.99308594 38.29796875 22.54867188 38.7734375 23.12109375 C43.00446106 29.60237506 42.67032648 36.50761669 42 44 C40.36788567 50.20594371 36.30604094 54.53618117 31 58 C27.10661068 59.93362959 24.01167132 60.22003673 19.6875 60.125 C18.61886719 60.10695312 17.55023438 60.08890625 16.44921875 60.0703125 C15.23685547 60.03550781 15.23685547 60.03550781 14 60 C14 59.34 14 58.68 14 58 C14.86882813 57.82984375 15.73765625 57.6596875 16.6328125 57.484375 C24.708251 55.78618435 30.75566511 54.33049378 35.875 47.5 C38.90035179 42.23510207 38.99071567 36.89673969 38 31 C35.98066717 25.92282032 32.72236782 21.79049007 28 19 C21.42910454 16.95869157 14.77001109 16.60322584 7.9375 16.375 C6.97650391 16.33632813 6.01550781 16.29765625 5.02539062 16.2578125 C2.68377186 16.16461374 0.34213963 16.07880815 -2 16 C-2.33 13.36 -2.66 10.72 -3 8 C-6.63 11.63 -10.26 15.26 -14 19 C-12.07859132 22.84281736 -10.4073184 24.80431927 -7.375 27.75 C-6.55773438 28.54921875 -5.74046875 29.3484375 -4.8984375 30.171875 C-4.27195312 30.77515625 -3.64546875 31.3784375 -3 32 C-2.67 29.36 -2.34 26.72 -2 24 C2.20809884 23.88343217 6.41577996 23.81262389 10.625 23.75 C12.40970703 23.69972656 12.40970703 23.69972656 14.23046875 23.6484375 C25.41391766 23.52348276 25.41391766 23.52348276 30 28 C32.92202617 32.20569084 32.63649352 37.07881838 32 42 C29.94513051 46.10973898 28.26267996 48.34059959 24 50 C21.421875 50.1953125 21.421875 50.1953125 18.75 50.125 C17.41195312 50.09792969 17.41195312 50.09792969 16.046875 50.0703125 C15.37140625 50.04710937 14.6959375 50.02390625 14 50 C14 49.34 14 48.68 14 48 C14.75925781 47.82984375 15.51851562 47.6596875 16.30078125 47.484375 C17.29464844 47.24203125 18.28851563 46.9996875 19.3125 46.75 C20.29863281 46.51796875 21.28476562 46.2859375 22.30078125 46.046875 C25.41066046 44.84072793 26.40626479 43.89625634 28 41 C28.6398743 35.96098988 28.86536657 34.12978413 25.75 30.0625 C22.02071069 27.26553301 19.02950337 26.90004408 14.453125 26.68359375 C13.60878906 26.64169922 12.76445313 26.59980469 11.89453125 26.55664062 C11.02183594 26.51732422 10.14914063 26.47800781 9.25 26.4375 C7.91775391 26.37272461 7.91775391 26.37272461 6.55859375 26.30664062 C4.37256528 26.20086505 2.18630223 26.0999574 0 26 C0 30.62 0 35.24 0 40 C-7.15801225 34.17371096 -13.52591766 27.5617015 -20 21 C-18.5450489 17.65215892 -16.70194509 15.45622627 -14.12109375 12.890625 C-13.36505859 12.13652344 -12.60902344 11.38242187 -11.83007812 10.60546875 C-11.04052734 9.82816406 -10.25097656 9.05085938 -9.4375 8.25 C-8.64408203 7.45722656 -7.85066406 6.66445312 -7.03320312 5.84765625 C-1.14025522 0 -1.14025522 0 0 0 Z " fill="#218BE6" transform="translate(28,8)"/>
<path d="M0 0 C0.99 0 1.98 0 3 0 C3 0.99 3 1.98 3 3 C2.01 3 1.02 3 0 3 C0 2.01 0 1.02 0 0 Z " fill="#1E88E8" transform="translate(63,39)"/>
<path d="M0 0 C0.99 0 1.98 0 3 0 C3 0.99 3 1.98 3 3 C2.01 3 1.02 3 0 3 C0 2.01 0 1.02 0 0 Z " fill="#1F98E8" transform="translate(50,26)"/>
<path d="M0 0 C0.99 0 1.98 0 3 0 C3 0.99 3 1.98 3 3 C2.01 2.67 1.02 2.34 0 2 C0 1.34 0 0.68 0 0 Z " fill="#228BE6" transform="translate(58,31)"/>
<path d="M0 0 C0.99 0 1.98 0 3 0 C3 0.66 3 1.32 3 2 C2.01 2 1.02 2 0 2 C0 1.34 0 0.68 0 0 Z " fill="#218AE5" transform="translate(61,35)"/>
<path d="M0 0 C0.66 0 1.32 0 2 0 C2 0.99 2 1.98 2 3 C1.34 3 0.68 3 0 3 C0 2.01 0 1.02 0 0 Z " fill="#218AE5" transform="translate(55,28)"/>
<path d="M0 0 C0.66 0 1.32 0 2 0 C2 0.66 2 1.32 2 2 C1.34 2 0.68 2 0 2 C0 1.34 0 0.68 0 0 Z " fill="#218AE6" transform="translate(38,66)"/>
<path d="M0 0 C0.66 0 1.32 0 2 0 C2 0.66 2 1.32 2 2 C1.34 2 0.68 2 0 2 C0 1.34 0 0.68 0 0 Z " fill="#218AE6" transform="translate(34,66)"/>
<path d="M0 0 C0.66 0 1.32 0 2 0 C2 0.66 2 1.32 2 2 C1.34 2 0.68 2 0 2 C0 1.34 0 0.68 0 0 Z " fill="#218AE6" transform="translate(30,66)"/>
<path d="M0 0 C0.66 0 1.32 0 2 0 C2 0.66 2 1.32 2 2 C1.34 2 0.68 2 0 2 C0 1.34 0 0.68 0 0 Z " fill="#218AE6" transform="translate(25,66)"/>
<path d="M0 0 C0.66 0 1.32 0 2 0 C2 0.66 2 1.32 2 2 C1.34 2 0.68 2 0 2 C0 1.34 0 0.68 0 0 Z " fill="#218AE6" transform="translate(19,66)"/>
<path d="M0 0 C0.66 0 1.32 0 2 0 C2 0.66 2 1.32 2 2 C1.34 2 0.68 2 0 2 C0 1.34 0 0.68 0 0 Z " fill="#218AE6" transform="translate(38,56)"/>
<path d="M0 0 C0.66 0 1.32 0 2 0 C2 0.66 2 1.32 2 2 C1.34 2 0.68 2 0 2 C0 1.34 0 0.68 0 0 Z " fill="#218AE6" transform="translate(34,56)"/>
<path d="M0 0 C0.66 0 1.32 0 2 0 C2 0.66 2 1.32 2 2 C1.34 2 0.68 2 0 2 C0 1.34 0 0.68 0 0 Z " fill="#218AE6" transform="translate(30,56)"/>
<path d="M0 0 C0.66 0 1.32 0 2 0 C2 0.66 2 1.32 2 2 C1.34 2 0.68 2 0 2 C0 1.34 0 0.68 0 0 Z " fill="#218AE6" transform="translate(25,56)"/>
<path d="M0 0 C0.66 0 1.32 0 2 0 C2 0.66 2 1.32 2 2 C1.34 2 0.68 2 0 2 C0 1.34 0 0.68 0 0 Z " fill="#218AE6" transform="translate(19,56)"/>
<path d="M0 0 C0.66 0 1.32 0 2 0 C2 0.66 2 1.32 2 2 C1.34 2 0.68 2 0 2 C0 1.34 0 0.68 0 0 Z " fill="#218AE6" transform="translate(64,44)"/>
<path d="M0 0 C0.66 0 1.32 0 2 0 C2 0.66 2 1.32 2 2 C1.34 2 0.68 2 0 2 C0 1.34 0 0.68 0 0 Z " fill="#218AE6" transform="translate(46,26)"/>
<path d="M0 0 C0.66 0 1.32 0 2 0 C2 0.66 2 1.32 2 2 C1.34 2 0.68 2 0 2 C0 1.34 0 0.68 0 0 Z " fill="#218AE6" transform="translate(42,26)"/>
<path d="M0 0 C0.66 0 1.32 0 2 0 C2 0.66 2 1.32 2 2 C1.34 2 0.68 2 0 2 C0 1.34 0 0.68 0 0 Z " fill="#218AE6" transform="translate(38,26)"/>
<path d="M0 0 C0.66 0 1.32 0 2 0 C2 0.66 2 1.32 2 2 C1.34 2 0.68 2 0 2 C0 1.34 0 0.68 0 0 Z " fill="#218AE6" transform="translate(34,26)"/>
<path d="M0 0 C0.66 0 1.32 0 2 0 C2 0.66 2 1.32 2 2 C1.34 2 0.68 2 0 2 C0 1.34 0 0.68 0 0 Z " fill="#218AE6" transform="translate(30,26)"/>
<path d="M0 0 C0.66 0 1.32 0 2 0 C2 0.66 2 1.32 2 2 C1.34 2 0.68 2 0 2 C0 1.34 0 0.68 0 0 Z " fill="#218AE6" transform="translate(26,26)"/>
<path d="M0 0 C0.66 0 1.32 0 2 0 C2 0.66 2 1.32 2 2 C1.34 2 0.68 2 0 2 C0 1.34 0 0.68 0 0 Z " fill="#218AE6" transform="translate(16,26)"/>
<path d="M0 0 C0.66 0 1.32 0 2 0 C2 0.66 2 1.32 2 2 C1.34 2 0.68 2 0 2 C0 1.34 0 0.68 0 0 Z " fill="#218AE6" transform="translate(19,23)"/>
<path d="M0 0 C0.66 0 1.32 0 2 0 C2 0.66 2 1.32 2 2 C1.34 2 0.68 2 0 2 C0 1.34 0 0.68 0 0 Z " fill="#218AE6" transform="translate(22,20)"/>
</svg>
