<?xml version="1.0" encoding="UTF-8"?>
<svg version="1.1" xmlns="http://www.w3.org/2000/svg" width="32" height="32">
<path d="M0 0 C3.89794557 5.32907534 3.97160185 10.61392603 3 17 C0.78436838 19.97361086 -0.73919585 21.36959793 -4 23 C-8.8679727 23.40762412 -13.44725277 23.57039694 -18.0625 21.875 C-20.69871618 19.32382305 -21.44079908 17.634806 -22 14 C-20.18174931 8.24220614 -17.49238469 3.78940439 -12.5625 0.25 C-7.85493222 -2.04637453 -4.67827361 -2.7084742 0 0 Z M-14 6 C-16.41364006 9.13120872 -18.57046193 11.99097797 -19 16 C-18.67 16.66 -18.34 17.32 -18 18 C-13.98680437 18.4894141 -11.599159 18.05022528 -8.3125 15.8125 C-5.41158208 13.52770624 -3.43789073 11.46785411 -2 8 C-1.74863967 4.79083829 -1.74863967 4.79083829 -2 2 C-7.31347397 1.49395486 -9.90317027 2.61566239 -14 6 Z M-1 11 C-1.61488281 11.72316406 -1.61488281 11.72316406 -2.2421875 12.4609375 C-2.78101563 13.09257812 -3.31984375 13.72421875 -3.875 14.375 C-4.40867187 15.00148438 -4.94234375 15.62796875 -5.4921875 16.2734375 C-6.61432007 17.55836651 -7.79371975 18.79371975 -9 20 C-4.60049557 19.62718073 -4.60049557 19.62718073 -1.0625 17.1875 C0.21639673 14.55447732 -0.176032 13.71057059 -1 11 Z " fill="#208CE7" transform="translate(25,5)"/>
</svg>
